<svg width="130" height="130" viewBox="0 0 130 130" fill="none" xmlns="http://www.w3.org/2000/svg">
<rect x="1" y="1" width="128" height="128" fill="#DEF716"/>
<path fill-rule="evenodd" clip-rule="evenodd" d="M49.2651 18.1456C47.0212 18.6213 44.9131 20.3554 43.9101 22.5513C42.025 26.6772 42.5487 32.8626 45.0351 35.8405C46.5815 37.6926 49.1594 38.724 51.6578 38.4903C53.4513 38.3225 54.6996 37.762 56.0037 36.5396C57.9865 34.681 58.9215 31.9584 58.9253 28.0318C58.9287 24.4444 58.2116 22.292 56.3476 20.2948C54.7022 18.5323 51.7163 17.6261 49.2651 18.1456ZM52.1455 22.3528C52.4092 22.5377 52.8358 23.0937 53.0937 23.5881C53.4948 24.357 53.5752 24.9242 53.6496 27.5078C53.7907 32.4108 53.0015 34.4769 50.9876 34.4769C48.8871 34.4769 48.0375 32.6826 48.0375 28.2466C48.0375 24.9961 48.4234 23.4128 49.4203 22.5721C50.1871 21.9255 51.398 21.8281 52.1455 22.3528ZM30.9331 25.3113C27.3504 26.6497 25.43 29.6746 25.046 34.5843C24.6788 39.2777 26.5312 43.1984 29.8475 44.7468C30.8 45.1917 31.4804 45.3363 32.896 45.3949C35.7829 45.5142 37.8008 44.542 39.3504 42.285C39.9616 41.3949 40.8894 39.193 40.7235 39.0267C40.6262 38.9294 37.5637 38.1373 37.2664 38.1328C37.135 38.1309 36.8681 38.5476 36.673 39.0594C36.1057 40.548 35.2713 41.2 33.797 41.307C32.6996 41.3865 32.4762 41.3315 31.891 40.838C30.9441 40.0395 30.5123 38.7724 30.3826 36.4104C30.1721 32.5807 30.9254 29.9101 32.416 29.2011C33.8067 28.5399 35.4634 29.4196 35.8082 31.0023C36.0489 32.1085 36.0562 32.1137 37.3378 32.1118C38.0193 32.1109 39.0897 32.0482 39.7161 31.973L40.8551 31.8357L40.7083 30.9542C40.3524 28.8183 38.6884 26.6564 36.6477 25.6782C35.3234 25.0434 32.1885 24.8421 30.9331 25.3113ZM60.9152 25.5904C60.8329 25.6727 60.7656 30.1711 60.7656 35.587V45.4336H62.9057H65.0461L65.1031 39.8517L65.1604 34.2698L68.9809 39.8517L72.8016 45.4336H74.9299H77.0585V35.4437V25.4537H74.9147H72.7709L72.7589 30.4487C72.7471 35.416 72.7447 35.4407 72.3361 34.9066C72.1102 34.6112 70.548 32.3876 68.8645 29.9653L65.8035 25.5612L63.4342 25.5008C62.131 25.4677 60.9973 25.5079 60.9152 25.5904ZM85.0076 33.7439C82.4732 34.6647 80.8647 36.4257 79.826 39.4182C79.4247 40.574 79.3402 41.2772 79.3348 43.5001C79.3275 46.5897 79.6841 47.9004 81.0319 49.7402C83.8583 53.5989 90.2145 54.0828 93.3468 50.6774C94.1349 49.8206 95.0496 48.2589 95.3688 47.2251C95.5009 46.7974 95.389 46.7334 93.9494 46.4107C93.09 46.218 92.2245 46.0117 92.026 45.952C91.7612 45.8723 91.5558 46.091 91.2546 46.7736C90.2563 49.0356 87.7909 49.7585 86.058 48.2972C85.0507 47.4477 84.7107 45.9103 84.8118 42.6603C84.8847 40.3125 84.9668 39.8066 85.4256 38.8785C86.6978 36.3047 89.6633 36.5673 90.3976 39.3185C90.6612 40.3063 90.6726 40.3162 91.4182 40.1924C91.833 40.1237 92.9324 40.0663 93.8613 40.065L95.5502 40.0627L95.4102 39.1855C95.0835 37.1379 93.3043 34.9165 91.2454 33.9854C89.8957 33.375 86.3963 33.2394 85.0076 33.7439ZM44.687 58.0016V69.0657H52.9406H61.1943V66.8138V64.5619L55.9956 64.5043L50.7968 64.4467L50.7355 62.3521L50.6742 60.2574H53.8976H57.1211V57.9V55.5424L53.959 55.4831L50.7968 55.4236L50.7349 53.5478L50.6731 51.6718L55.6656 51.6143L60.6584 51.5565L60.7193 49.247L60.7801 46.9375H52.7336H44.687V58.0016ZM36.8979 48.5846C36.8192 48.6633 36.7549 51.6602 36.7549 55.2446V61.7613H38.5771H40.3993V55.1013V48.4413H38.7201C37.7963 48.4413 36.9763 48.5058 36.8979 48.5846ZM64.1957 63.48V73.7922H66.336H68.4764L68.5334 67.978L68.5905 62.1641L72.5565 67.9716L76.5226 73.7788L78.72 73.7855L80.9174 73.7922V63.48V53.1678H78.6703H76.4231L76.3657 58.2285L76.3082 63.2894L72.7928 58.2285L69.2773 53.1678H66.7365H64.1957V63.48ZM90.4239 56.8155C88.0529 57.3212 85.8741 58.9604 84.8196 61.0315C83.3009 64.0147 83.1476 68.3181 84.4609 71.1002C85.1943 72.6535 87.1227 74.4491 88.7432 75.0874C89.7788 75.4952 90.4454 75.5957 92.1724 75.6047C94.0577 75.6146 94.4629 75.5472 95.5328 75.0455C97.2455 74.2427 98.5933 72.9193 99.3793 71.2691C99.7426 70.506 99.9579 69.808 99.8578 69.7175C99.7576 69.6273 99.0969 69.4423 98.3895 69.3066C97.682 69.1706 96.8967 69.0041 96.6444 68.9364C96.2628 68.8339 96.0829 69.0026 95.5725 69.9405C94.7656 71.4242 93.8902 71.913 92.2339 71.8049C90.8092 71.7119 90.2687 71.3288 89.6699 69.9878C88.8546 68.1621 88.976 63.4368 89.8777 61.8942C90.8287 60.2673 92.7892 59.852 94.0056 61.0199C94.3572 61.3574 94.7465 62.0126 94.871 62.4762L95.0976 63.319L97.4383 63.2224C98.7258 63.1693 99.8475 63.0574 99.9309 62.9736C100.18 62.7244 99.5958 60.9002 98.9666 59.9613C98.2267 58.8575 96.6534 57.6576 95.3114 57.174C94.0742 56.7283 91.6626 56.5512 90.4239 56.8155ZM102.07 59.7562C101.991 59.8348 101.927 62.8318 101.927 66.4161V72.9328H103.963H106V66.2728V59.6129H104.106C103.065 59.6129 102.148 59.6773 102.07 59.7562ZM62.1487 78.4593C61.4413 80.7301 57.1991 94.2402 56.8175 95.437C56.6644 95.9174 56.6773 95.9204 58.9137 95.9204H61.1639L61.5152 94.6851C61.7084 94.0056 61.9717 93.0873 62.1003 92.6441L62.3342 91.8385H65.3996H68.4651L68.9114 93.3961C69.7033 96.1604 69.3676 95.9204 72.4448 95.9204C74.8613 95.9204 75.1282 95.8828 75.1214 95.5444C75.1171 95.3378 73.7761 90.8664 72.1415 85.6082L69.1693 76.0479L66.0531 75.9886L62.9368 75.9291L62.1487 78.4593ZM78.988 87.4343V96.1352H81.3462H83.7044V92.6978V89.2604H87.5632H91.4221V87.4343V85.6082H87.5632H83.7044V83.9969V82.3856H89.0639H94.4234V80.5595V78.7334H86.7057H78.988V87.4343ZM66.4728 84.6045L67.3565 87.6492L65.5347 87.7117C64.5327 87.7461 63.6839 87.745 63.6486 87.7095C63.6132 87.6741 63.9862 86.2274 64.4778 84.4945C64.9691 82.7616 65.4202 81.3925 65.4802 81.4518C65.54 81.5113 65.9868 82.93 66.4728 84.6045ZM65.6963 103.421V109.025H67.197H68.6977V106.77V104.514H69.4075H70.1175L71.2895 108.22L72.4618 111.926L74.653 111.987C75.8582 112.021 76.8442 111.986 76.8442 111.911C76.8442 111.835 76.0053 110.037 74.9801 107.913L73.1161 104.053L73.8053 103.513C75.145 102.462 75.4655 101.076 74.7111 99.5937C74.009 98.2144 73.2327 97.9753 69.18 97.8903L65.6963 97.817V103.421ZM80.8102 99.2356C77.209 100.555 76.898 106.941 80.3471 108.744C81.4236 109.307 83.4042 109.236 84.5293 108.595C85.9354 107.793 86.5496 106.585 86.6645 104.394C86.7458 102.84 86.6911 102.48 86.2145 101.436C85.2734 99.3763 82.9778 98.4413 80.8102 99.2356ZM71.4368 100.337C71.7029 100.524 71.9134 100.898 71.9134 101.184C71.9134 101.932 71.1485 102.366 69.829 102.366H68.6977V101.184V100.002H69.829C70.5062 100.002 71.1519 100.137 71.4368 100.337ZM83.1931 101.366C83.7271 101.826 83.785 102.026 83.8613 103.675C83.9704 106.038 83.5689 106.951 82.3763 107.05C81.6928 107.107 81.5419 107.034 81.2761 106.513C80.494 104.982 80.5965 102.238 81.4686 101.364C82.0997 100.731 82.4579 100.732 83.1931 101.366Z" fill="#181818"/>
<rect x="1" y="1" width="128" height="128" stroke="#181818" stroke-width="2"/>
</svg>
