<svg width="147" height="172" viewBox="0 0 147 172" fill="none" xmlns="http://www.w3.org/2000/svg">
<path fill-rule="evenodd" clip-rule="evenodd" d="M44.0366 0.764885C39.9643 1.63016 36.1387 4.78487 34.3182 8.77946C30.8972 16.2852 31.8477 27.5373 36.36 32.9545C39.1663 36.3238 43.8448 38.2001 48.379 37.7749C51.6339 37.4696 53.8994 36.45 56.266 34.2262C59.8645 30.8452 61.5612 25.8923 61.5682 18.7493C61.5744 12.2234 60.273 8.30774 56.8901 4.67466C53.904 1.46836 48.4852 -0.180121 44.0366 0.764885ZM49.2641 8.41834C49.7426 8.75484 50.5168 9.76628 50.9849 10.6656C51.7128 12.0643 51.8587 13.0961 51.9937 17.7961C52.2497 26.7154 50.8176 30.4739 47.1627 30.4739C43.3507 30.4739 41.8089 27.2098 41.8089 19.1401C41.8089 13.227 42.5092 10.3467 44.3183 8.81737C45.71 7.64099 47.9074 7.46395 49.2641 8.41834ZM10.7675 13.8003C4.26552 16.2352 0.7803 21.7379 0.0834899 30.6694C-0.582974 39.2072 2.77891 46.3397 8.79732 49.1564C10.5259 49.9658 11.7608 50.2288 14.3298 50.3355C19.5689 50.5524 23.2311 48.7839 26.0433 44.678C27.1525 43.0588 28.8364 39.0533 28.5352 38.7508C28.3586 38.5737 22.8008 37.1328 22.2612 37.1245C22.0227 37.121 21.5383 37.8792 21.1843 38.8102C20.1548 41.5182 18.6406 42.7043 15.965 42.8989C13.9734 43.0435 13.568 42.9435 12.5059 42.0458C10.7874 40.5931 10.0038 38.288 9.76842 33.9913C9.38636 27.0246 10.7535 22.1663 13.4587 20.8765C15.9825 19.6736 18.9892 21.274 19.6148 24.1532C20.0517 26.1655 20.0649 26.1749 22.3908 26.1714C23.6276 26.1698 25.5702 26.0557 26.707 25.9189L28.7741 25.6692L28.5076 24.0656C27.8618 20.1801 24.8419 16.2473 21.1384 14.4679C18.7351 13.313 13.0459 12.9468 10.7675 13.8003ZM65.1794 14.308C65.03 14.4577 64.9079 22.6411 64.9079 32.4933V50.4058H68.7919H72.6763L72.7798 40.2515L72.8836 30.0972L79.8171 40.2515L86.751 50.4058H90.6136H94.4766V32.2326V14.0595H90.586H86.6954L86.6736 23.146C86.6522 32.1822 86.6479 32.2272 85.9063 31.2556C85.4963 30.7182 82.6612 26.6732 79.6059 22.2667L74.0508 14.2549L69.7509 14.145C67.3858 14.0849 65.3284 14.1579 65.1794 14.308ZM108.903 29.1405C104.303 30.8155 101.384 34.0191 99.499 39.4628C98.7707 41.5655 98.6174 42.8446 98.6077 46.8884C98.5944 52.5088 99.2414 54.8932 101.687 58.2402C106.817 65.2598 118.352 66.1399 124.037 59.945C125.467 58.3864 127.127 55.5455 127.706 53.6649C127.946 52.8868 127.743 52.7703 125.13 52.1833C123.571 51.8327 122 51.4575 121.64 51.3489C121.159 51.2039 120.787 51.6017 120.24 52.8434C118.428 56.9583 113.954 58.2735 110.809 55.6151C108.981 54.0698 108.364 51.2731 108.547 45.3607C108.68 41.0898 108.829 40.1694 109.661 38.4811C111.97 33.7991 117.352 34.2766 118.684 39.2815C119.163 41.0785 119.184 41.0965 120.537 40.8714C121.29 40.7463 123.285 40.6419 124.971 40.6396L128.036 40.6353L127.781 39.0396C127.189 35.3147 123.96 31.2736 120.223 29.5797C117.774 28.4694 111.423 28.2228 108.903 29.1405ZM35.7282 73.2689V93.3962H50.7071H65.686V89.2996V85.203L56.2512 85.0983L46.8165 84.9935L46.7052 81.183L46.5939 77.3725H52.4439H58.2938V73.084V68.7951L52.5551 68.6873L46.8165 68.579L46.704 65.1668L46.592 61.7541L55.6525 61.6494L64.7133 61.5442L64.8238 57.3429L64.9343 53.1416H50.3313H35.7282V73.2689ZM21.5924 56.138C21.4496 56.2811 21.3329 61.733 21.3329 68.2535V80.1082H24.6399H27.947V67.9928V55.8773H24.8994C23.223 55.8773 21.7348 55.9946 21.5924 56.138ZM71.1329 83.2348V101.994H75.0173H78.9017L79.0051 91.4174L79.1086 80.841L86.3063 91.4057L93.5039 101.97L97.4918 101.982L101.48 101.994V83.2348V64.4754H97.4016H93.3234L93.2192 73.6816L93.1149 82.8882L86.735 73.6816L80.3552 64.4754H75.744H71.1329V83.2348ZM118.732 71.1112C114.429 72.0311 110.475 75.0131 108.561 78.7806C105.805 84.2076 105.527 92.0361 107.911 97.0973C109.242 99.9229 112.741 103.189 115.682 104.35C117.562 105.092 118.771 105.275 121.905 105.292C125.327 105.31 126.062 105.187 128.004 104.274C131.112 102.814 133.558 100.406 134.985 97.4044C135.644 96.0162 136.035 94.7465 135.853 94.5819C135.671 94.4178 134.472 94.0813 133.188 93.8343C131.904 93.5869 130.479 93.284 130.021 93.1609C129.329 92.9745 129.002 93.2813 128.076 94.9876C126.612 97.6866 125.023 98.5757 122.017 98.3791C119.431 98.2099 118.451 97.5131 117.364 95.0736C115.884 91.7524 116.105 83.1563 117.741 80.3502C119.467 77.3905 123.025 76.635 125.232 78.7595C125.87 79.3735 126.577 80.5655 126.803 81.4089L127.214 82.9421L131.462 82.7662C133.799 82.6697 135.834 82.4661 135.986 82.3137C136.437 81.8603 135.378 78.5418 134.236 76.8339C132.893 74.8259 130.038 72.6432 127.602 71.7634C125.357 70.9525 120.98 70.6304 118.732 71.1112ZM139.867 76.4607C139.725 76.6038 139.608 82.0557 139.608 88.5762V100.431H143.304H147V88.3155V76.2H143.563C141.673 76.2 140.01 76.3173 139.867 76.4607ZM67.4181 110.484C66.1342 114.615 58.4354 139.192 57.7429 141.369C57.4651 142.243 57.4885 142.249 61.5471 142.249H65.6307L66.2684 140.002C66.619 138.765 67.0967 137.095 67.3302 136.289L67.7546 134.823H73.3178H78.881L79.6911 137.657C81.1283 142.685 80.519 142.249 86.1036 142.249C90.4891 142.249 90.9735 142.18 90.961 141.565C90.9532 141.189 88.5197 133.055 85.5531 123.489L80.1591 106.098L74.5037 105.99L68.8483 105.882L67.4181 110.484ZM97.9782 126.811V142.64H102.258H106.538V136.387V130.133H113.541H120.544V126.811V123.489H113.541H106.538V120.558V117.627H116.264H125.991V114.305V110.983H111.984H97.9782V126.811ZM75.2655 121.663L76.8692 127.202L73.563 127.316C71.7445 127.378 70.2042 127.377 70.14 127.312C70.0758 127.248 70.7527 124.616 71.6449 121.463C72.5366 118.311 73.3552 115.82 73.4641 115.928C73.5727 116.036 74.3835 118.617 75.2655 121.663ZM73.8563 155.894V166.089H76.5797H79.3032V161.985V157.882H80.5914H81.8799L84.0069 164.623L86.1343 171.365L90.1109 171.476C92.2982 171.538 94.0875 171.475 94.0875 171.338C94.0875 171.2 92.5651 167.928 90.7046 164.066L87.3217 157.044L88.5726 156.06C91.0038 154.149 91.5855 151.627 90.2164 148.931C88.9422 146.422 87.5334 145.987 80.1786 145.832L73.8563 145.699V155.894ZM101.285 148.28C94.7497 150.68 94.1852 162.297 100.445 165.577C102.398 166.601 105.993 166.472 108.035 165.305C110.587 163.847 111.701 161.649 111.91 157.664C112.057 154.836 111.958 154.181 111.093 152.283C109.385 148.536 105.219 146.835 101.285 148.28ZM84.2742 150.283C84.757 150.623 85.1391 151.303 85.1391 151.824C85.1391 153.184 83.7509 153.973 81.3562 153.973H79.3032V151.824V149.674H81.3562C82.5853 149.674 83.7572 149.919 84.2742 150.283ZM105.61 152.155C106.579 152.992 106.684 153.356 106.822 156.356C107.02 160.655 106.292 162.316 104.127 162.496C102.887 162.6 102.613 162.466 102.131 161.519C100.711 158.734 100.897 153.741 102.48 152.151C103.625 151.001 104.276 151.002 105.61 152.155Z" fill="#181818"/>
</svg>
